<svg width="46" height="46" viewBox="0 0 46 46" fill="none" xmlns="http://www.w3.org/2000/svg">
<rect width="46" height="46" rx="23" fill="#E7E9EB"/>
<path d="M23.0968 27.3032V31.5652C26.1405 31.2367 28.4473 28.6723 28.4473 25.6179C28.4473 22.3132 25.7631 19.6352 22.4522 19.6352C19.1413 19.6352 16.4571 22.3132 16.4571 25.6174C16.4571 28.6723 18.7633 31.2367 21.8065 31.5658M21.8081 27.3032V31.5557M21.8014 27.3167C21.4039 27.1652 21.0721 26.8791 20.8637 26.5082C20.6553 26.1373 20.5835 25.7051 20.6608 25.2868C20.7381 24.8685 20.9597 24.4905 21.2869 24.2186C21.6141 23.9468 22.0262 23.7982 22.4516 23.7988H22.4522C23.4591 23.7988 24.2747 24.6133 24.2747 25.6174C24.2747 26.3711 23.809 27.0478 23.1036 27.3167M20.367 12.4864C20.3074 12.4245 20.0295 12.0319 19.2746 12.0319C18.8714 12.0316 18.4846 12.1914 18.1992 12.4762C17.9138 12.7609 17.7531 13.1474 17.7525 13.5506C17.7958 13.9196 17.8853 14.3184 18.1294 14.5985C18.9703 15.5689 20.5161 15.8034 22.1338 16.4559C21.5584 14.4197 21.1528 13.2924 20.3676 12.4858M19.9108 18.6283L22.5006 16.8339M22.5006 16.8339H29.3681C29.706 16.8329 30.0408 16.8984 30.3533 17.0268C30.6659 17.1551 30.9501 17.3437 31.1898 17.5819C31.4294 17.8201 31.6198 18.1032 31.75 18.4149C31.8803 18.7267 31.9479 19.061 31.9489 19.3989V32.4236C31.9492 32.8329 31.7869 33.2255 31.4978 33.5152C31.2087 33.8048 30.8163 33.9678 30.4071 33.9682H14.5997C14.397 33.9689 14.1962 33.9296 14.0087 33.8527C13.8211 33.7757 13.6506 33.6626 13.5068 33.5197C13.363 33.3769 13.2488 33.2071 13.1706 33.0201C13.0924 32.8331 13.0518 32.6325 13.0511 32.4298V19.4113C13.0509 19.0734 13.1171 18.7388 13.2461 18.4265C13.3752 18.1143 13.5644 17.8305 13.8031 17.5913C14.0418 17.3522 14.3253 17.1625 14.6373 17.0329C14.9494 16.9033 15.2839 16.8365 15.6218 16.8362H15.6325L22.5006 16.8339ZM25.0847 18.6283L22.4944 16.8339M24.5368 12.4869C24.5965 12.425 24.8743 12.0324 25.6292 12.0324C26.0324 12.0321 26.4192 12.1919 26.7047 12.4767C26.9901 12.7615 27.1507 13.148 27.1513 13.5512C27.108 13.9202 27.0186 14.319 26.775 14.5991C25.9335 15.5694 24.3878 15.804 22.77 16.4565C23.3455 14.4202 23.7516 13.2935 24.5368 12.4869Z" stroke="#0D1D4A" stroke-linecap="round" stroke-linejoin="round"/>
</svg>
