<svg width="16" height="30" viewBox="0 0 16 30" fill="none" xmlns="http://www.w3.org/2000/svg">
<path d="M13.8102 17.1885H12.5477L12.344 11.7679L11.3827 11.7583L11.3421 15.9809L11.6323 21.6355C11.6058 21.9264 11.0744 22.0686 10.5198 22.0686C9.89652 22.0686 9.24227 21.8895 9.23777 21.5424L8.71483 16.0785H7.49295L6.73795 21.4726C6.73795 21.8404 6.04233 22.0304 5.38033 22.0304C4.79845 22.0304 4.23739 21.8811 4.21033 21.574L4.56002 15.9821L4.56389 11.7581L3.60777 11.7678L3.40214 17.1878H2.18564C1.3522 12.7557 2.36777 7.87494 5.87358 7.33119C5.30658 6.62007 4.94264 5.63294 4.94264 4.53851C4.94264 2.37663 6.31889 0.631193 8.00889 0.631193C8.06827 0.631193 8.12902 0.626068 8.18914 0.624756H8.24864C8.27437 0.625317 8.30005 0.627467 8.32552 0.631193C9.86864 0.831631 11.0736 2.51182 11.0736 4.53844C11.0736 5.66063 10.6896 6.66201 10.0974 7.37632C13.3084 7.98069 14.7546 12.6366 13.8101 17.1882L13.8102 17.1885ZM15.1108 20.777C14.5291 20.3645 13.639 20.0265 12.5729 19.7776C12.5729 19.7776 12.6737 21.2418 12.6627 21.7299C12.6569 21.9924 12.4895 22.6349 11.6161 22.938C11.2612 23.0526 10.89 23.1085 10.5171 23.1036C10.0997 23.1088 9.68436 23.0432 9.28883 22.9096C8.63664 22.6718 8.23383 22.1908 8.20158 21.6167L8.02183 19.7419L7.76327 21.5798C7.73552 21.9134 7.55714 22.5359 6.65727 22.8649C6.24583 23.0047 5.81365 23.0736 5.37914 23.0687C4.99377 23.0735 4.61019 23.0156 4.24339 22.8973C3.3532 22.5857 3.18314 21.9361 3.17864 21.669C3.17089 21.2016 3.28339 19.8034 3.28339 19.8034C1.41639 20.261 0.448641 20.9204 0.334891 21.4118C0.261766 21.7286 0.653016 22.0583 0.892766 22.2296C2.72677 23.5271 7.57777 24.0875 11.4856 23.4539C14.162 23.0202 15.528 22.1876 15.6644 21.5973C15.7419 21.2779 15.3502 20.9476 15.1103 20.7769L15.1108 20.777ZM2.28002 27.8881C2.58314 28.5928 4.72752 29.3749 8.00108 29.3749C11.3627 29.3749 13.4767 28.4861 13.6945 27.9385C13.9868 27.0154 14.7488 24.5614 15.0327 23.6473C11.461 25.3436 4.25427 25.279 0.968954 23.6318C1.27208 24.6164 1.9962 26.9688 2.28002 27.8874V27.8881Z" fill="#B5BBC0"/>
</svg>
