<svg width="14" height="18" viewBox="0 0 14 18" fill="none" xmlns="http://www.w3.org/2000/svg">
<path d="M7.00119 18C8.01658 18 8.84735 17.1692 8.84735 16.1538H5.15504C5.15504 16.6435 5.34954 17.1131 5.69577 17.4593C6.04199 17.8055 6.51156 18 7.00119 18ZM12.5397 12.4615V7.84615C12.5397 5.01231 11.0258 2.64 8.38581 2.01231V1.38462C8.38581 0.618462 7.76735 0 7.00119 0C6.23504 0 5.61658 0.618462 5.61658 1.38462V2.01231C2.96735 2.64 1.46273 5.00308 1.46273 7.84615V12.4615L0.271962 13.6523C-0.309576 14.2338 0.0965776 15.2308 0.918116 15.2308H13.075C13.8966 15.2308 14.312 14.2338 13.7304 13.6523L12.5397 12.4615Z" fill="white"/>
</svg>
